<?xml version="1.0" encoding="UTF-8"?>
<svg xmlns="http://www.w3.org/2000/svg" xmlns:se="https://standardebooks.org/vocab/1.0" version="1.1" viewBox="0 0 1400 340" se:generated-from="03617c4387bdb71c32dd05387fce07e287e624ba">
	<path d="M 387.13011,68.245613 405.46929,68.245613 405.46929,130 423.05994,130 423.05994,68.245613 441.39912,68.245613 441.39912,52.807016 387.13011,52.807016 387.13011,68.245613 Z"/>
	<path d="M 470.32456,99.029239 495.21345,99.029239 495.21345,130 512.80409,130 512.80409,52.807016 495.21345,52.807016 495.21345,83.590642 470.32456,83.590642 470.32456,52.807016 452.73391,52.807016 452.73391,130 470.32456,130 470.32456,99.029239 Z"/>
	<path d="M 573.16959,52.807016 529.00585,52.807016 529.00585,130 573.16959,130 573.16959,114.5614 546.59649,114.5614 546.59649,99.029239 572.04678,99.029239 572.04678,83.590642 546.59649,83.590642 546.59649,68.245613 573.16959,68.245613 573.16959,52.807016 Z"/>
	<path d="M 652.45761,52.807016 634.86696,52.807016 634.86696,103.7076 C 634.86696,111.47368 631.03071,114.5614 625.97807,114.5614 621.48685,114.5614 615.96638,109.32164 615.96638,109.32164 L 610.35234,124.0117 C 610.35234,124.0117 617.36989,131.40351 628.41082,131.40351 643.84942,131.40351 652.45761,123.35673 652.45761,108.19883 L 652.45761,52.807016 Z"/>
	<path d="M 727.04824,52.807016 709.45759,52.807016 709.45759,97.438596 C 709.45759,110.35088 705.52777,114.09357 696.91958,114.09357 688.31139,114.09357 684.38157,110.35088 684.38157,97.438596 L 684.38157,52.807016 666.79092,52.807016 666.79092,102.58479 C 666.79092,121.67251 677.27046,131.40351 696.91958,131.40351 716.5687,131.40351 727.04824,121.67251 727.04824,102.58479 L 727.04824,52.807016 Z"/>
	<path d="M 759.94444,82.093566 760.13157,82.093566 790.82163,130 808.41227,130 808.41227,52.807016 790.82163,52.807016 790.82163,100.71345 790.6345,100.71345 759.94444,52.807016 742.35379,52.807016 742.35379,130 759.94444,130 759.94444,82.093566 Z"/>
	<path d="M 894.45761,86.771929 858.80848,86.771929 858.80848,100.33918 876.58626,100.33918 C 876.58626,109.78947 868.25878,115.21637 859.83772,115.21637 848.98392,115.21637 840.1886,104.54971 840.1886,91.450292 840.1886,78.070175 848.98392,67.30994 859.83772,67.30994 866.66813,67.30994 872.56287,70.023391 877.0541,77.228069 L 888.56287,64.59649 C 881.82603,56.456139 872.37574,51.403507 858.80848,51.403507 837.10088,51.403507 821.19445,69.274853 821.19445,91.450292 821.19445,113.53216 838.03655,131.40351 858.80848,131.40351 873.96638,131.40351 890.24708,123.07602 894.45761,103.52047 L 894.45761,86.771929 Z"/>
	<path d="M 924.73249,52.807016 907.14185,52.807016 907.14185,130 951.30559,130 951.30559,114.5614 924.73249,114.5614 924.73249,52.807016 Z"/>
	<path d="M 1009.1199,52.807016 964.95618,52.807016 964.95618,130 1009.1199,130 1009.1199,114.5614 982.54682,114.5614 982.54682,99.029239 1007.9971,99.029239 1007.9971,83.590642 982.54682,83.590642 982.54682,68.245613 1009.1199,68.245613 1009.1199,52.807016 Z"/>
	<path d="M 407.40241,232.10526 394.20943,232.10526 394.20943,265.57895 C 394.20943,275.26316 391.26206,278.07018 384.80592,278.07018 378.34978,278.07018 375.40242,275.26316 375.40242,265.57895 L 375.40242,232.10526 362.20943,232.10526 362.20943,269.4386 C 362.20943,283.75439 370.06908,291.05263 384.80592,291.05263 399.54277,291.05263 407.40241,283.75439 407.40241,269.4386 L 407.40241,232.10526 Z"/>
	<path d="M 420.13158,232.10526 420.13158,290 433.32456,290 433.32456,268.52632 441.25439,268.52632 C 452.55263,268.52632 461.04386,261.85965 461.04386,249.92982 461.04386,237.92983 452.55263,232.10526 441.25439,232.10526 L 420.13158,232.10526 Z M 433.32456,258 433.32456,242.63158 437.04386,242.63158 C 442.23684,242.63158 447.14912,244.38597 447.14912,250.35088 447.14912,256.24561 442.23684,258 437.04386,258 L 433.32456,258 Z"/>
	<path d="M 464.79386,243.68421 478.54825,243.68421 478.54825,290 491.74123,290 491.74123,243.68421 505.49562,243.68421 505.49562,232.10526 464.79386,232.10526 464.79386,243.68421 Z"/>
	<path d="M 510.45724,261.01754 C 510.45724,277.92982 522.52742,291.05263 539.65023,291.05263 556.2818,291.05263 568.77303,277.92982 568.77303,261.01754 568.77303,244.10526 555.7204,231.05263 539.65023,231.05263 523.7204,231.05263 510.45724,244.10526 510.45724,261.01754 Z M 524.70286,261.01754 C 524.70286,252.38597 529.47479,243.75439 539.65023,243.75439 549.89584,243.75439 554.52742,252.38597 554.52742,261.01754 554.52742,269.64912 550.17654,278.2807 539.65023,278.2807 528.84321,278.2807 524.70286,269.64912 524.70286,261.01754 Z"/>
	<path d="M 592.78727,254.07018 592.92763,254.07018 615.94517,290 629.13815,290 629.13815,232.10526 615.94517,232.10526 615.94517,268.03509 615.80482,268.03509 592.78727,232.10526 579.59429,232.10526 579.59429,290 592.78727,290 592.78727,254.07018 Z"/>
	<path d="M 686.72258,231.05263 C 677.38924,231.05263 667.84539,237.92983 667.84539,248.73684 667.84539,254.77193 671.91556,260.17544 678.86293,263.61404 685.74012,267.05263 691.91556,268.94737 691.91556,273.15789 691.91556,278.5614 686.44188,278.84211 683.56468,278.84211 677.10854,278.84211 669.38924,272.31579 669.38924,272.31579 L 662.79275,283.40351 C 662.79275,283.40351 671.00328,291.05263 684.54714,291.05263 695.84539,291.05263 706.3717,286.21053 706.3717,272.38597 706.3717,264.80702 699.28398,259.33333 692.82784,256.59649 686.23135,253.78947 680.75767,251.47368 680.75767,248.24561 680.75767,245.08772 683.14363,243.05263 687.63486,243.05263 693.59977,243.05263 699.35416,247.05263 699.35416,247.05263 L 704.68749,236.52632 C 704.68749,236.52632 697.24889,231.05263 686.72258,231.05263 Z"/>
	<path d="M 730.73137,232.10526 717.53838,232.10526 717.53838,290 730.73137,290 730.73137,232.10526 Z"/>
	<path d="M 757.38707,254.07018 757.52742,254.07018 780.54496,290 793.73794,290 793.73794,232.10526 780.54496,232.10526 780.54496,268.03509 780.40461,268.03509 757.38707,232.10526 744.19409,232.10526 744.19409,290 757.38707,290 757.38707,254.07018 Z"/>
	<path d="M 835.7851,278.07018 C 822.52194,278.07018 816.69738,268.80702 816.69738,261.01754 816.69738,253.29825 822.52194,244.03509 835.7851,244.03509 842.52194,244.03509 847.15352,247.61404 847.15352,247.61404 L 852.76755,236.38597 C 852.76755,236.38597 846.31141,231.05263 833.75001,231.05263 817.32896,231.05263 802.38159,244.52632 802.38159,261.1579 802.38159,277.7193 817.39913,291.05263 833.75001,291.05263 846.31141,291.05263 852.76755,285.7193 852.76755,285.7193 L 847.15352,274.49123 C 847.15352,274.49123 842.52194,278.07018 835.7851,278.07018 Z"/>
	<path d="M 876.07676,232.10526 862.88378,232.10526 862.88378,290 896.00659,290 896.00659,278.42105 876.07676,278.42105 876.07676,232.10526 Z"/>
	<path d="M 937.99451,232.10526 925.78398,232.10526 902.41556,290 916.591,290 920.8717,278.42105 942.90679,278.42105 947.18749,290 961.36293,290 937.99451,232.10526 Z M 938.41556,266.84211 925.36293,266.84211 931.81907,250 931.95942,250 938.41556,266.84211 Z"/>
	<path d="M 981.74559,232.10526 968.55261,232.10526 968.55261,290 981.74559,290 981.74559,232.10526 Z"/>
	<path d="M 995.20831,232.10526 995.20831,290 1008.4013,290 1008.4013,267.12281 1026.0855,290 1042.8574,290 1022.9276,266.07018 C 1030.0153,263.82456 1034.7873,258 1034.7873,249.29825 1034.7873,237.92983 1026.6469,232.10526 1015.9101,232.10526 L 995.20831,232.10526 Z M 1008.4013,257.78947 1008.4013,242.63158 1009.9451,242.63158 C 1014.9276,242.63158 1020.8925,242.98246 1020.8925,250.21053 1020.8925,257.4386 1014.9276,257.78947 1009.9451,257.78947 L 1008.4013,257.78947 Z"/>
</svg>
