<?xml version="1.0" encoding="utf-8"?>
<svg xmlns="http://www.w3.org/2000/svg" xmlns:svg="http://www.w3.org/2000/svg" version="1.1" viewBox="0 0 1400 340">
	<title>The titlepage for the Standard Ebooks edition of The Jungle, by Upton Sinclair</title>
	<g aria-label="THE JUNGLE">
		<path d="m 387.13011,68.245613 h 18.33918 V 130 h 17.59065 V 68.245613 h 18.33918 V 52.807016 h -54.26901 z"/>
		<path d="m 470.32456,99.029239 h 24.88889 V 130 h 17.59064 V 52.807016 H 495.21345 V 83.590642 H 470.32456 V 52.807016 H 452.73391 V 130 h 17.59065 z"/>
		<path d="M 573.16959,52.807016 H 529.00585 V 130 h 44.16374 v -15.4386 h -26.5731 V 99.029239 h 25.45029 V 83.590642 H 546.59649 V 68.245613 h 26.5731 z"/>
		<path d="M 652.45761,52.807016 H 634.86696 V 103.7076 c 0,7.76608 -3.83625,10.8538 -8.88889,10.8538 -4.49122,0 -10.01169,-5.23976 -10.01169,-5.23976 l -5.61404,14.69006 c 0,0 7.01755,7.39181 18.05848,7.39181 15.4386,0 24.04679,-8.04678 24.04679,-23.20468 z"/>
		<path d="m 727.04824,52.807016 h -17.59065 v 44.63158 c 0,12.912284 -3.92982,16.654974 -12.53801,16.654974 -8.60819,0 -12.53801,-3.74269 -12.53801,-16.654974 v -44.63158 h -17.59065 v 49.777774 c 0,19.08772 10.47954,28.81872 30.12866,28.81872 19.64912,0 30.12866,-9.731 30.12866,-28.81872 z"/>
		<path d="m 759.94444,82.093566 h 0.18713 L 790.82163,130 h 17.59064 V 52.807016 H 790.82163 V 100.71345 H 790.6345 L 759.94444,52.807016 H 742.35379 V 130 h 17.59065 z"/>
		<path d="m 894.45761,86.771929 h -35.64913 v 13.567251 h 17.77778 c 0,9.45029 -8.32748,14.87719 -16.74854,14.87719 -10.8538,0 -19.64912,-10.66666 -19.64912,-23.766078 0,-13.380117 8.79532,-24.140352 19.64912,-24.140352 6.83041,0 12.72515,2.713451 17.21638,9.918129 L 888.56287,64.59649 c -6.73684,-8.140351 -16.18713,-13.192983 -29.75439,-13.192983 -21.7076,0 -37.61403,17.871346 -37.61403,40.046785 0,22.081868 16.8421,39.953218 37.61403,39.953218 15.1579,0 31.4386,-8.32749 35.64913,-27.88304 z"/>
		<path d="M 924.73249,52.807016 H 907.14185 V 130 h 44.16374 v -15.4386 h -26.5731 z"/>
		<path d="M 1009.1199,52.807016 H 964.95618 V 130 h 44.16372 V 114.5614 H 982.54682 V 99.029239 h 25.45028 V 83.590642 H 982.54682 V 68.245613 h 26.57308 z"/>
	</g>
	<g aria-label="UPTON SINCLAIR">
		<path d="m 407.40241,232.10526 h -13.19298 v 33.47369 c 0,9.68421 -2.94737,12.49123 -9.40351,12.49123 -6.45614,0 -9.4035,-2.80702 -9.4035,-12.49123 v -33.47369 h -13.19299 v 37.33334 c 0,14.31579 7.85965,21.61403 22.59649,21.61403 14.73685,0 22.59649,-7.29824 22.59649,-21.61403 z"/>
		<path d="M 420.13158,232.10526 V 290 h 13.19298 v -21.47368 h 7.92983 c 11.29824,0 19.78947,-6.66667 19.78947,-18.5965 0,-11.99999 -8.49123,-17.82456 -19.78947,-17.82456 z M 433.32456,258 v -15.36842 h 3.7193 c 5.19298,0 10.10526,1.75439 10.10526,7.7193 0,5.89473 -4.91228,7.64912 -10.10526,7.64912 z"/>
		<path d="m 464.79386,243.68421 h 13.75439 V 290 h 13.19298 v -46.31579 h 13.75439 v -11.57895 h -40.70176 z"/>
		<path d="m 510.45724,261.01754 c 0,16.91228 12.07018,30.03509 29.19299,30.03509 16.63157,0 29.1228,-13.12281 29.1228,-30.03509 0,-16.91228 -13.05263,-29.96491 -29.1228,-29.96491 -15.92983,0 -29.19299,13.05263 -29.19299,29.96491 z m 14.24562,0 c 0,-8.63157 4.77193,-17.26315 14.94737,-17.26315 10.24561,0 14.87719,8.63158 14.87719,17.26315 0,8.63158 -4.35088,17.26316 -14.87719,17.26316 -10.80702,0 -14.94737,-8.63158 -14.94737,-17.26316 z"/>
		<path d="m 592.78727,254.07018 h 0.14036 L 615.94517,290 h 13.19298 v -57.89474 h -13.19298 v 35.92983 h -0.14035 L 592.78727,232.10526 H 579.59429 V 290 h 13.19298 z"/>
		<path d="m 686.72258,231.05263 c -9.33334,0 -18.87719,6.8772 -18.87719,17.68421 0,6.03509 4.07017,11.4386 11.01754,14.8772 6.87719,3.43859 13.05263,5.33333 13.05263,9.54385 0,5.40351 -5.47368,5.68422 -8.35088,5.68422 -6.45614,0 -14.17544,-6.52632 -14.17544,-6.52632 l -6.59649,11.08772 c 0,0 8.21053,7.64912 21.75439,7.64912 11.29825,0 21.82456,-4.8421 21.82456,-18.66666 0,-7.57895 -7.08772,-13.05264 -13.54386,-15.78948 -6.59649,-2.80702 -12.07017,-5.12281 -12.07017,-8.35088 0,-3.15789 2.38596,-5.19298 6.87719,-5.19298 5.96491,0 11.7193,4 11.7193,4 l 5.33333,-10.52631 c 0,0 -7.4386,-5.47369 -17.96491,-5.47369 z"/>
		<path d="M 730.73137,232.10526 H 717.53838 V 290 h 13.19299 z"/>
		<path d="m 757.38707,254.07018 h 0.14035 L 780.54496,290 h 13.19298 v -57.89474 h -13.19298 v 35.92983 h -0.14035 L 757.38707,232.10526 H 744.19409 V 290 h 13.19298 z"/>
		<path d="m 835.7851,278.07018 c -13.26316,0 -19.08772,-9.26316 -19.08772,-17.05264 0,-7.71929 5.82456,-16.98245 19.08772,-16.98245 6.73684,0 11.36842,3.57895 11.36842,3.57895 l 5.61403,-11.22807 c 0,0 -6.45614,-5.33334 -19.01754,-5.33334 -16.42105,0 -31.36842,13.47369 -31.36842,30.10527 0,16.5614 15.01754,29.89473 31.36842,29.89473 12.5614,0 19.01754,-5.33333 19.01754,-5.33333 l -5.61403,-11.22807 c 0,0 -4.63158,3.57895 -11.36842,3.57895 z"/>
		<path d="M 876.07676,232.10526 H 862.88378 V 290 h 33.12281 v -11.57895 h -19.92983 z"/>
		<path d="M 937.99451,232.10526 H 925.78398 L 902.41556,290 H 916.591 l 4.2807,-11.57895 h 22.03509 L 947.18749,290 h 14.17544 z m 0.42105,34.73685 H 925.36293 L 931.81907,250 h 0.14035 z"/>
		<path d="M 981.74559,232.10526 H 968.55261 V 290 h 13.19298 z"/>
		<path d="M 995.20831,232.10526 V 290 h 13.19299 V 267.12281 L 1026.0855,290 h 16.7719 l -19.9298,-23.92982 c 7.0877,-2.24562 11.8597,-8.07018 11.8597,-16.77193 0,-11.36842 -8.1404,-17.19299 -18.8772,-17.19299 z m 13.19299,25.68421 v -15.15789 h 1.5438 c 4.9825,0 10.9474,0.35088 10.9474,7.57895 0,7.22807 -5.9649,7.57894 -10.9474,7.57894 z"/>
	</g>
</svg>
